<svg width="1189" height="249" viewBox="0 0 1189 249" fill="none" xmlns="http://www.w3.org/2000/svg">
<path d="M185.618 74.9033L37.3313 143.854V4.60693H0V243.811H37.3313V182.677L185.618 113.727V243.811H223.001V4.60693H185.618V74.9033Z" fill="#E60000"/>
<path d="M1007.11 72.1081C1008.36 51.7128 1041.49 36.3388 1076.64 36.3388C1111.79 36.3388 1146.21 52.2823 1146.21 73.2469H1185.05C1185.05 28.8847 1136.09 0 1076.64 0C1017.19 0 968.226 28.8847 968.226 73.2469V94.0563L1149.27 178.226C1145.95 197.637 1112.57 211.976 1078.61 211.976C1042.78 211.976 1007.63 196.033 1007.63 175.068H968.797C968.797 219.43 1019.16 248.315 1078.61 248.315C1138.06 248.315 1188.42 219.43 1188.42 175.068V156.329L1007.11 72.0563V72.1081Z" fill="#E60000"/>
<path d="M695.845 4.60693L603.841 220.724L511.837 4.60693H471.234L573.104 243.811H634.578L736.447 4.60693H695.845Z" fill="#E60000"/>
<path d="M378.245 27.6422L420.509 126.927L315.109 175.948L378.245 27.6422ZM510.852 243.811L409.035 4.60693H347.56L245.743 243.811H286.293L294.549 224.4L434.372 159.383L470.302 243.811H510.852Z" fill="#E60000"/>
<path d="M829.438 27.6422L871.702 126.927L766.302 175.948L829.438 27.6422ZM962.045 243.811L860.227 4.60693H798.753L696.936 243.811H737.486L745.741 224.4L885.565 159.383L921.494 243.811H962.045Z" fill="#E60000"/>
</svg>
