<?xml version="1.0" encoding="UTF-8"?>
<svg id="Layer_1" data-name="Layer 1" xmlns="http://www.w3.org/2000/svg" viewBox="0 0 658.41 88.8">
  <defs>
    <style>
      .cls-1 {
        fill: #e60900;
      }

      .cls-2 {
        fill: #fff;
      }
    </style>
  </defs>
  <g>
    <polygon class="cls-1" points="66.18 26.78 13.31 51.43 13.31 1.64 0 1.64 0 87.16 13.31 87.16 13.31 65.32 66.18 40.67 66.18 87.16 79.49 87.16 79.49 1.64 66.18 1.64 66.18 26.78"/>
    <path class="cls-1" d="M359,25.77c.44-7.3,12.26-12.78,24.78-12.78s24.8,5.7,24.8,13.2h13.84c0-15.87-17.45-26.19-38.64-26.19s-38.64,10.32-38.64,26.19v7.45l64.54,30.1c-1.18,6.94-13.08,12.07-25.19,12.07-12.76,0-25.3-5.7-25.3-13.2h-13.84c0,15.87,17.95,26.19,39.14,26.19s39.14-10.32,39.14-26.19v-6.7l-64.63-30.14Z"/>
    <polygon class="cls-1" points="248.06 1.64 215.25 78.92 182.45 1.64 167.99 1.64 204.29 87.16 226.21 87.16 262.52 1.64 248.06 1.64"/>
    <path class="cls-1" d="M182.1,87.16L145.8,1.64h-21.92l-36.3,85.52h14.46l2.95-6.95,49.85-23.24,12.81,30.19h14.46ZM134.83,9.88l15.07,35.5-37.58,17.52,22.51-53.02Z"/>
    <path class="cls-1" d="M342.93,87.16L306.63,1.64h-21.92l-36.3,85.52h14.46l2.95-6.95,49.85-23.24,12.81,30.19h14.46ZM295.67,9.88l15.07,35.5-37.58,17.52,22.51-53.02Z"/>
  </g>
  <g>
    <g>
      <path class="cls-2" d="M463.38,1.64h8.43l9.96,29.9h.05l9.93-29.9h8.43v35.37h-5.12l.05-30.23h-.05l-10.26,30.23h-6.02l-10.29-30.23h-.05l.05,30.23h-5.12V1.64Z"/>
      <path class="cls-2" d="M504.69,23.84v-.05c0-8.2,5.62-13.65,13.12-13.65,8.35,0,13.22,6.42,12.89,15.25v.03h-20.57c.48,4.87,3.41,8.08,7.98,8.08,3.89,0,6-1.45,7-3.96h5.22c-1.4,4.77-5.57,8.18-12.37,8.18-8.38,0-13.27-5.97-13.27-13.87ZM525.29,21.28v-.02c-.25-4.06-3.04-7.05-7.5-7.05-4.04,0-6.9,2.28-7.58,7.07h15.08Z"/>
      <path class="cls-2" d="M534.32,23.96v-.05c0-8.68,5.49-13.75,12.22-13.75,3.71,0,6.72,1.71,8.28,4.14V1.64h5.12v35.37h-5.12v-3.44c-1.56,2.43-4.57,4.14-8.28,4.14-6.72,0-12.22-5.07-12.22-13.75ZM554.99,23.96v-.05c0-6.35-3.26-9.48-7.63-9.48s-7.63,3.14-7.63,9.48v.05c0,6.35,3.24,9.48,7.63,9.48s7.63-3.14,7.63-9.48Z"/>
      <path class="cls-2" d="M566.65,1.64h5.12v5.82h-5.12V1.64ZM566.65,10.87h5.12v26.14h-5.12V10.87Z"/>
      <path class="cls-2" d="M576.81,29.83v-.05c0-5.54,4.34-7.63,12.87-8.76,4.31-.58,4.87-1.1,4.87-3.04v-.05c0-2.58-2.06-3.86-5.42-3.86s-5.92,1.46-6.02,4.77h-5.12c0-6,5.19-8.73,11.16-8.73,6.5,0,10.46,2.16,10.44,8.6l-.05,9.61c-.03,3.79.15,6.22.78,8.68h-5.09c-.15-.88-.28-1.51-.33-2.56-1.66,1.88-4.11,3.26-8.45,3.26-5.49,0-9.63-2.99-9.63-7.88ZM594.7,28.08v-4.74c-2.03.7-3.71,1.1-5.27,1.48-5.52,1.33-7.2,2.21-7.2,4.77v.03c.03,2.63,1.96,4.09,5.39,4.09,4.04,0,7.07-1.91,7.07-5.62Z"/>
    </g>
    <g>
      <path class="cls-2" d="M463.38,51.79h6.97l17.31,28.77h.05l-.05-7.88v-20.9h5.14v35.37h-7.02l-17.26-28.77h-.05l.05,7.88v20.9h-5.14v-35.37Z"/>
      <path class="cls-2" d="M497.67,73.99v-.05c0-8.2,5.62-13.65,13.12-13.65,8.35,0,13.22,6.42,12.89,15.25v.03h-20.57c.48,4.87,3.41,8.08,7.98,8.08,3.89,0,6-1.45,7-3.96h5.22c-1.4,4.77-5.57,8.18-12.37,8.18-8.38,0-13.27-5.97-13.27-13.87ZM518.26,71.43v-.03c-.25-4.06-3.04-7.05-7.5-7.05-4.04,0-6.9,2.28-7.58,7.07h15.08Z"/>
      <path class="cls-2" d="M529.75,79.53v-14.15h-4.01v-4.37h4.01v-8.28h5.12v8.28h5.59v4.37h-5.59v14.05c0,2.51.4,3.36,3.09,3.36h2.31v4.37h-3.16c-5.87,0-7.35-1.91-7.35-7.63Z"/>
      <path class="cls-2" d="M543.72,61.02h5.29l6.05,20.67,6.22-20.67h5.47l6.5,20.7,6.17-20.7h4.89l-8.05,26.14h-5.74l-6.67-20.67-6.3,20.67h-5.8l-8.03-26.14Z"/>
      <path class="cls-2" d="M585.49,74.09v-.05c0-7.93,5.04-13.75,13.22-13.75s13.22,5.82,13.22,13.75v.05c0,7.93-5.04,13.77-13.22,13.77s-13.22-5.84-13.22-13.77ZM606.51,74.09v-.05c0-5.59-2.63-9.51-7.8-9.51s-7.8,3.91-7.8,9.51v.05c0,5.59,2.63,9.53,7.8,9.53s7.8-3.94,7.8-9.53Z"/>
      <path class="cls-2" d="M615.99,61.02h5.12v4.64c1.5-3.01,4.34-4.92,8.43-4.92h.48v4.99h-1.38c-4.74,0-7.53,2.16-7.53,7.78v13.65h-5.12v-26.14Z"/>
      <path class="cls-2" d="M633.62,51.79h5.12v20.24l12.49-11.01h6.3l-14.2,12.17,15.08,13.97h-7.3l-12.37-11.54v11.54h-5.12v-35.37Z"/>
    </g>
  </g>
</svg>