<?xml version="1.0" encoding="UTF-8"?>
<svg id="Layer_1" data-name="Layer 1" xmlns="http://www.w3.org/2000/svg" viewBox="0 0 315.25 315.25">
  <rect width="12.61" height="75.66"/>
  <rect y="75.66" width="12.61" height="12.61"/>
  <rect y="100.88" width="12.61" height="12.61"/>
  <rect y="126.1" width="12.61" height="12.61"/>
  <rect y="138.71" width="12.61" height="12.61"/>
  <rect y="163.93" width="12.61" height="50.44"/>
  <rect y="226.98" width="12.61" height="25.22"/>
  <rect y="252.2" width="12.61" height="37.83"/>
  <rect y="290.03" width="12.61" height="25.22"/>
  <rect x="12.61" width="12.61" height="12.61"/>
  <rect x="12.61" y="75.66" width="12.61" height="12.61"/>
  <rect x="12.61" y="113.49" width="12.61" height="25.22"/>
  <rect x="12.61" y="151.32" width="12.61" height="12.61"/>
  <rect x="12.61" y="226.98" width="12.61" height="12.61"/>
  <rect x="12.61" y="302.64" width="12.61" height="12.61"/>
  <rect x="25.22" width="12.61" height="12.61"/>
  <rect x="25.22" y="25.22" width="12.61" height="37.83"/>
  <rect x="25.22" y="75.66" width="12.61" height="12.61"/>
  <rect x="25.22" y="126.1" width="12.61" height="12.61"/>
  <rect x="25.22" y="163.93" width="12.61" height="25.22"/>
  <rect x="25.22" y="201.76" width="12.61" height="12.61"/>
  <rect x="25.22" y="226.98" width="12.61" height="12.61"/>
  <rect x="25.22" y="252.2" width="12.61" height="37.83"/>
  <rect x="25.22" y="302.64" width="12.61" height="12.61"/>
  <rect x="37.83" width="12.61" height="12.61"/>
  <rect x="37.83" y="25.22" width="12.61" height="37.83"/>
  <rect x="37.83" y="75.66" width="12.61" height="12.61"/>
  <rect x="37.83" y="113.49" width="12.61" height="12.61"/>
  <rect x="37.83" y="138.71" width="12.61" height="25.22"/>
  <rect x="37.83" y="226.98" width="12.61" height="12.61"/>
  <rect x="37.83" y="252.2" width="12.61" height="37.83"/>
  <rect x="37.83" y="302.64" width="12.61" height="12.61"/>
  <rect x="50.44" width="12.61" height="12.61"/>
  <rect x="50.44" y="25.22" width="12.61" height="37.83"/>
  <rect x="50.44" y="75.66" width="12.61" height="12.61"/>
  <rect x="50.44" y="113.49" width="12.61" height="12.61"/>
  <rect x="50.44" y="151.32" width="12.61" height="12.61"/>
  <rect x="50.44" y="176.54" width="12.61" height="12.61"/>
  <rect x="50.44" y="201.76" width="12.61" height="12.61"/>
  <rect x="50.44" y="226.98" width="12.61" height="12.61"/>
  <rect x="50.44" y="252.2" width="12.61" height="37.83"/>
  <rect x="50.44" y="302.64" width="12.61" height="12.61"/>
  <rect x="63.05" width="12.61" height="12.61"/>
  <rect x="63.05" y="75.66" width="12.61" height="12.61"/>
  <rect x="63.05" y="126.1" width="12.61" height="12.61"/>
  <rect x="63.05" y="163.93" width="12.61" height="50.44"/>
  <rect x="63.05" y="226.98" width="12.61" height="12.61"/>
  <rect x="63.05" y="302.64" width="12.61" height="12.61"/>
  <rect x="75.66" width="12.61" height="75.66"/>
  <rect x="75.66" y="75.66" width="12.61" height="12.61"/>
  <rect x="75.66" y="100.88" width="12.61" height="12.61"/>
  <rect x="75.66" y="126.1" width="12.61" height="12.61"/>
  <rect x="75.66" y="151.32" width="12.61" height="12.61"/>
  <rect x="75.66" y="176.54" width="12.61" height="12.61"/>
  <rect x="75.66" y="201.76" width="12.61" height="12.61"/>
  <rect x="75.66" y="226.98" width="12.61" height="25.22"/>
  <rect x="75.66" y="252.2" width="12.61" height="37.83"/>
  <rect x="75.66" y="290.03" width="12.61" height="25.22"/>
  <rect x="88.27" y="126.1" width="12.61" height="12.61"/>
  <rect x="88.27" y="151.32" width="12.61" height="63.05"/>
  <rect x="100.88" y="12.61" width="12.61" height="37.83"/>
  <rect x="100.88" y="75.66" width="12.61" height="37.83"/>
  <rect x="100.88" y="126.1" width="12.61" height="12.61"/>
  <rect x="100.88" y="138.71" width="12.61" height="12.61"/>
  <rect x="100.88" y="201.76" width="12.61" height="12.61"/>
  <rect x="100.88" y="214.37" width="12.61" height="12.61"/>
  <rect x="100.88" y="302.64" width="12.61" height="12.61"/>
  <rect x="113.49" y="12.61" width="12.61" height="25.22"/>
  <rect x="113.49" y="50.44" width="12.61" height="25.22"/>
  <rect x="113.49" y="88.27" width="12.61" height="12.61"/>
  <rect x="113.49" y="113.49" width="12.61" height="25.22"/>
  <rect x="113.49" y="138.71" width="12.61" height="37.83"/>
  <rect x="113.49" y="189.15" width="12.61" height="12.61"/>
  <rect x="113.49" y="214.37" width="12.61" height="37.83"/>
  <rect x="113.49" y="264.81" width="12.61" height="25.22"/>
  <rect x="113.49" y="302.64" width="12.61" height="12.61"/>
  <rect x="126.1" y="12.61" width="12.61" height="12.61"/>
  <rect x="126.1" y="50.44" width="12.61" height="25.22"/>
  <rect x="126.1" y="75.66" width="12.61" height="12.61"/>
  <rect x="126.1" y="100.88" width="12.61" height="12.61"/>
  <rect x="126.1" y="138.71" width="12.61" height="12.61"/>
  <rect x="126.1" y="163.93" width="12.61" height="25.22"/>
  <rect x="126.1" y="201.76" width="12.61" height="12.61"/>
  <rect x="126.1" y="214.37" width="12.61" height="37.83"/>
  <rect x="126.1" y="252.2" width="12.61" height="12.61"/>
  <rect x="126.1" y="290.03" width="12.61" height="12.61"/>
  <rect x="138.71" y="12.61" width="12.61" height="25.22"/>
  <rect x="138.71" y="88.27" width="12.61" height="50.44"/>
  <rect x="138.71" y="138.71" width="12.61" height="25.22"/>
  <rect x="138.71" y="176.54" width="12.61" height="37.83"/>
  <rect x="138.71" y="226.98" width="12.61" height="25.22"/>
  <rect x="138.71" y="264.81" width="12.61" height="12.61"/>
  <rect x="138.71" y="302.64" width="12.61" height="12.61"/>
  <rect x="151.32" y="12.61" width="12.61" height="50.44"/>
  <rect x="151.32" y="75.66" width="12.61" height="25.22"/>
  <rect x="151.32" y="138.71" width="12.61" height="25.22"/>
  <rect x="151.32" y="176.54" width="12.61" height="12.61"/>
  <rect x="151.32" y="201.76" width="12.61" height="12.61"/>
  <rect x="151.32" y="214.37" width="12.61" height="25.22"/>
  <rect x="151.32" y="290.03" width="12.61" height="12.61"/>
  <rect x="163.93" width="12.61" height="25.22"/>
  <rect x="163.93" y="37.83" width="12.61" height="37.83"/>
  <rect x="163.93" y="126.1" width="12.61" height="12.61"/>
  <rect x="163.93" y="151.32" width="12.61" height="25.22"/>
  <rect x="163.93" y="226.98" width="12.61" height="12.61"/>
  <rect x="163.93" y="302.64" width="12.61" height="12.61"/>
  <rect x="176.54" y="37.83" width="12.61" height="12.61"/>
  <rect x="176.54" y="63.05" width="12.61" height="12.61"/>
  <rect x="176.54" y="75.66" width="12.61" height="37.83"/>
  <rect x="176.54" y="126.1" width="12.61" height="12.61"/>
  <rect x="176.54" y="176.54" width="12.61" height="37.83"/>
  <rect x="176.54" y="252.2" width="12.61" height="12.61"/>
  <rect x="176.54" y="290.03" width="12.61" height="12.61"/>
  <rect x="189.15" y="37.83" width="12.61" height="12.61"/>
  <rect x="189.15" y="88.27" width="12.61" height="12.61"/>
  <rect x="189.15" y="113.49" width="12.61" height="25.22"/>
  <rect x="189.15" y="138.71" width="12.61" height="63.05"/>
  <rect x="189.15" y="252.2" width="12.61" height="37.83"/>
  <rect x="189.15" y="290.03" width="12.61" height="12.61"/>
  <rect x="201.76" y="12.61" width="12.61" height="37.83"/>
  <rect x="201.76" y="63.05" width="12.61" height="12.61"/>
  <rect x="201.76" y="75.66" width="12.61" height="25.22"/>
  <rect x="201.76" y="126.1" width="12.61" height="12.61"/>
  <rect x="201.76" y="163.93" width="12.61" height="12.61"/>
  <rect x="201.76" y="201.76" width="12.61" height="12.61"/>
  <rect x="201.76" y="214.37" width="12.61" height="37.83"/>
  <rect x="201.76" y="252.2" width="12.61" height="37.83"/>
  <rect x="201.76" y="290.03" width="12.61" height="25.22"/>
  <rect x="214.37" y="100.88" width="12.61" height="12.61"/>
  <rect x="214.37" y="138.71" width="12.61" height="12.61"/>
  <rect x="214.37" y="176.54" width="12.61" height="12.61"/>
  <rect x="214.37" y="201.76" width="12.61" height="12.61"/>
  <rect x="214.37" y="252.2" width="12.61" height="25.22"/>
  <rect x="214.37" y="290.03" width="12.61" height="25.22"/>
  <rect x="226.98" width="12.61" height="75.66"/>
  <rect x="226.98" y="75.66" width="12.61" height="12.61"/>
  <rect x="226.98" y="100.88" width="12.61" height="12.61"/>
  <rect x="226.98" y="126.1" width="12.61" height="12.61"/>
  <rect x="226.98" y="138.71" width="12.61" height="25.22"/>
  <rect x="226.98" y="189.15" width="12.61" height="25.22"/>
  <rect x="226.98" y="226.98" width="12.61" height="12.61"/>
  <rect x="226.98" y="252.2" width="12.61" height="25.22"/>
  <rect x="226.98" y="302.64" width="12.61" height="12.61"/>
  <rect x="239.59" width="12.61" height="12.61"/>
  <rect x="239.59" y="75.66" width="12.61" height="12.61"/>
  <rect x="239.59" y="113.49" width="12.61" height="12.61"/>
  <rect x="239.59" y="138.71" width="12.61" height="12.61"/>
  <rect x="239.59" y="163.93" width="12.61" height="50.44"/>
  <rect x="239.59" y="252.2" width="12.61" height="12.61"/>
  <rect x="239.59" y="290.03" width="12.61" height="12.61"/>
  <rect x="252.2" width="12.61" height="12.61"/>
  <rect x="252.2" y="25.22" width="12.61" height="37.83"/>
  <rect x="252.2" y="75.66" width="12.61" height="12.61"/>
  <rect x="252.2" y="113.49" width="12.61" height="12.61"/>
  <rect x="252.2" y="176.54" width="12.61" height="12.61"/>
  <rect x="252.2" y="201.76" width="12.61" height="12.61"/>
  <rect x="252.2" y="214.37" width="12.61" height="37.83"/>
  <rect x="252.2" y="252.2" width="12.61" height="12.61"/>
  <rect x="252.2" y="290.03" width="12.61" height="12.61"/>
  <rect x="264.81" width="12.61" height="12.61"/>
  <rect x="264.81" y="25.22" width="12.61" height="37.83"/>
  <rect x="264.81" y="75.66" width="12.61" height="12.61"/>
  <rect x="264.81" y="100.88" width="12.61" height="37.83"/>
  <rect x="264.81" y="138.71" width="12.61" height="12.61"/>
  <rect x="264.81" y="176.54" width="12.61" height="25.22"/>
  <rect x="264.81" y="277.42" width="12.61" height="12.61"/>
  <rect x="264.81" y="302.64" width="12.61" height="12.61"/>
  <rect x="277.42" width="12.61" height="12.61"/>
  <rect x="277.42" y="25.22" width="12.61" height="37.83"/>
  <rect x="277.42" y="75.66" width="12.61" height="12.61"/>
  <rect x="277.42" y="100.88" width="12.61" height="25.22"/>
  <rect x="277.42" y="189.15" width="12.61" height="25.22"/>
  <rect x="277.42" y="252.2" width="12.61" height="12.61"/>
  <rect x="277.42" y="277.42" width="12.61" height="12.61"/>
  <rect x="290.03" width="12.61" height="12.61"/>
  <rect x="290.03" y="75.66" width="12.61" height="12.61"/>
  <rect x="290.03" y="100.88" width="12.61" height="37.83"/>
  <rect x="290.03" y="163.93" width="12.61" height="25.22"/>
  <rect x="290.03" y="239.59" width="12.61" height="12.61"/>
  <rect x="290.03" y="264.81" width="12.61" height="12.61"/>
  <rect x="302.64" width="12.61" height="75.66"/>
  <rect x="302.64" y="75.66" width="12.61" height="12.61"/>
  <rect x="302.64" y="126.1" width="12.61" height="12.61"/>
  <rect x="302.64" y="138.71" width="12.61" height="25.22"/>
  <rect x="302.64" y="176.54" width="12.61" height="25.22"/>
  <rect x="302.64" y="226.98" width="12.61" height="25.22"/>
  <rect x="302.64" y="264.81" width="12.61" height="25.22"/>
  <rect x="302.64" y="290.03" width="12.61" height="25.22"/>
</svg>